<?xml version="1.0" encoding="utf-8"?>
<!-- Generator: Adobe Illustrator 23.0.1, SVG Export Plug-In . SVG Version: 6.00 Build 0)  -->
<svg version="1.1" id="katman_1" xmlns="http://www.w3.org/2000/svg" xmlns:xlink="http://www.w3.org/1999/xlink" x="0px" y="0px"
	 viewBox="0 0 1553 220" style="enable-background:new 0 0 1553 220;" xml:space="preserve">
<style type="text/css">
	.st0{fill:none;stroke:#FFFFFF;stroke-width:12;stroke-miterlimit:10;}
	.st1{fill:#FFFFFF;stroke:#FFFFFF;stroke-miterlimit:10;}
	.st2{fill:#FFFFFF;stroke:#FFFFFF;}
	.st3{fill:#FFFFFF;}
	.st4{fill-rule:evenodd;clip-rule:evenodd;fill:#FFFFFF;stroke:#FFFFFF;stroke-miterlimit:10;}
	.st5{fill:none;stroke:#FFFFFF;stroke-width:4;stroke-miterlimit:10;}
	.st6{fill:none;stroke:#FFFFFF;stroke-width:5;}
	.st7{fill:#FFFFFF;stroke:#FFFFFF;stroke-width:5;}
</style>
<g>
	<g>
		<path class="st0" d="M1463.1,210.7h-176c-6.6,0-12-5.4-12-12v-176c0-6.6,5.4-12,12-12h176c6.6,0,12,5.4,12,12v176
			C1475.1,205.3,1469.7,210.7,1463.1,210.7z"/>
		<g>
			<path class="st1" d="M1374.3,155.7h-6.7v-9.2c-12.4-1-20.3-7-23.7-17.9l10.7-2.5c1.9,7,6.3,10.8,13,11.3v-19.7
				c-8.8-2-14.5-4.6-17.2-7.7s-4-6.8-4-11.1c0-11.2,7.1-17.6,21.2-19.4v-7.2h6.7v7.2c10.3,1.3,16.9,6.4,19.6,15.3l-10.1,2.1
				c-1.7-5.1-4.9-7.9-9.5-8.3V106c6.5,1.9,10.9,3.3,13.1,4.3c2.3,1,4.3,2.9,6.1,5.8s2.7,6.3,2.7,10.2c0,5.5-1.9,10.1-5.6,13.7
				c-3.8,3.7-9.2,5.8-16.3,6.4L1374.3,155.7L1374.3,155.7z M1367.6,88.7c-2.9,0-5.3,0.8-7.2,2.2c-1.9,1.4-2.9,3.5-2.9,6.3
				c0,4.6,3.4,7.4,10.2,8.3L1367.6,88.7L1367.6,88.7z M1374.3,137.4c3.1,0,5.7-0.9,7.8-2.7c2.1-1.8,3.2-4.1,3.2-7
				c0-4.8-3.7-8-11-9.3V137.4z"/>
		</g>
	</g>
	<g>
		<path class="st0" d="M1164.4,210.7h-176c-6.6,0-12-5.4-12-12v-176c0-6.6,5.4-12,12-12h176c6.6,0,12,5.4,12,12v176
			C1176.4,205.3,1171,210.7,1164.4,210.7z"/>
		<g>
			<path class="st2" d="M1034.1,65.9h17l26.3,81.1h-15.3l-12.2-43.1c-2.4-8.6-5-17.8-7.2-26.7h-0.5c-2.3,9-4.7,18.2-7.1,26.7
				l-12.3,43.1H1008L1034.1,65.9z M1023.4,113.7h38v11.4h-38V113.7z"/>
			<path class="st2" d="M1090.2,134.9h19.5V78.1h-19.5V66h53.5v12.1h-19.5v56.8h19.5V147h-53.5V134.9z"/>
		</g>
	</g>
	<g>
		<path class="st0" d="M268,210.7H92c-6.6,0-12-5.4-12-12v-176c0-6.6,5.4-12,12-12h176c6.6,0,12,5.4,12,12v176
			C280,205.3,274.6,210.7,268,210.7z"/>
		<g id="layer1_2_" transform="translate(-269.21 -460.26)">
			<g id="g4211_1_" transform="translate(-379.42 99.131)">
				<g id="path4196_1_">
					<path class="st3" d="M784.6,431.3c4.2,0,8.3,0.8,12.2,2.4c8.8,3.5,15.9,10.6,19.9,19.3l7.6-6.2c0.6-0.4,1.3-0.6,2-0.6
						c1.7,0,3.3,1.1,3.3,3l0.4,7.5l67.5-0.5c6.6,2.9,10.2,5.5,11.4,9.7l-7.4,6.8l-6.9,6.6l-7.9,0.3l-6.2-5.3l-8.6,8.6h-6.2l-8.4-8
						l-9.2,9.3l-7.1-6.7l-10.4-0.2l0.2,9.8c0,1.8-0.8,3.5-2.4,3.5c-0.5,0-1.1-0.2-1.8-0.6l-9.1-5.2c-4.9,11.9-15.7,21.4-28.5,23
						c-1.5,0.2-3,0.3-4.5,0.3c-12.9,0-25.7-7.7-31.6-19.6c-7.8-14.7-5.4-34.4,6.3-46.2c6.6-6.9,15.9-10.8,25.2-10.9l0,0
						C784.5,431.3,784.5,431.3,784.6,431.3 M784.6,422.3L784.6,422.3h-0.3c-11.9,0.1-23.4,5-31.6,13.6
						c-14.3,14.4-17.6,38.2-7.9,56.6c7.5,14.9,23,24.5,39.6,24.5c1.9,0,3.8-0.1,5.6-0.4c12.3-1.5,23.5-8.7,30.8-19.5l1,0.6
						c2,1.2,4.2,1.9,6.4,1.9c3.8,0,7.3-2,9.4-5.2c1.1-1.7,1.7-3.6,1.9-5.7l2.2,2.1l6.4,6l6.2-6.3l3-3l2,1.9l2.6,2.5h3.6h6.2h3.7
						l2.6-2.6l2.8-2.8l2.6,2.2l3.5-0.1l7.9-0.3l3.4-0.1l2.5-2.4l6.8-6.6l7.3-6.8l4.1-3.8l-1.6-5.4c-2.5-8.2-9.3-12.2-16.4-15.3
						l-1.8-0.8h-1.9l-58.9,0.5c-0.8-5.9-5.9-10.4-12.2-10.4c-2.5,0-4.9,0.7-7,2.1l-0.4,0.2l0,0c-5-6.3-11.5-11.3-18.7-14.2
						C795.4,423.3,790.1,422.3,784.6,422.3L784.6,422.3z"/>
				</g>
				<g id="path4192_1_">
					<path class="st3" d="M772.6,460.3c0.9,0,1.9,0.2,2.8,0.5c3,1.1,5.2,4.1,5.3,7.3c0,0.2,0,0.3,0,0.5l0,0l0,0
						c0.1,3.9-3.1,7.8-7.1,8.2c-0.3,0-0.7,0.1-1,0.1c-3,0-5.8-1.7-7.2-4.2c-1.8-3.2-1.2-7.4,1.4-10
						C768.4,461.1,770.5,460.3,772.6,460.3 M772.6,451.3c-4.5,0-8.9,1.8-12.1,4.9c-5.5,5.3-6.8,14-3.1,20.7
						c2.9,5.4,8.8,8.9,15.1,8.9c0.7,0,1.4,0,2.1-0.1c8.5-1,15.2-8.7,15-17.3c0-0.3,0-0.5,0-0.8c-0.3-6.7-4.7-12.8-11.1-15.2
						C776.8,451.6,774.7,451.3,772.6,451.3L772.6,451.3z"/>
				</g>
			</g>
		</g>
		<g>
			<g id="layer1_1_" transform="translate(-3.0978698,-4.6612284)">
				<rect id="rect8832-9" x="242.6" y="35.8" class="st4" width="2.2" height="12.5"/>
				<path id="path9039" class="st4" d="M240.7,67.1c-4.8-1-8.5-3.8-10.6-8c-1.3-2.6-1.8-5.2-1.5-8c0.4-3.6,1.9-6.8,4.6-9.3
					c2-1.9,4.4-3.2,7-3.8l0.4-0.1v1.4v1.4l-0.5,0.2c-2.2,0.7-4.8,2.6-6.2,4.6c-1.7,2.4-2.5,5.6-2.1,8.4c0.7,4.8,3.8,8.6,8.4,10.1
					c1.3,0.4,1.5,0.5,3.4,0.5c1.7,0,2.2,0,3.2-0.3c4.5-1.3,7.7-4.8,8.7-9.4c0.3-1.6,0.2-4.2-0.2-5.7c-1.1-3.7-4-6.8-7.6-8l-0.9-0.3
					v-1.4V38l0.5,0.1c0.9,0.2,3,1,4.1,1.6c6.1,3.4,9,10.8,6.9,17.3c-1.7,5.2-6,9.1-11.4,10.1C245.2,67.3,242.1,67.4,240.7,67.1
					L240.7,67.1z"/>
			</g>
			<circle class="st5" cx="240.6" cy="47.9" r="21.6"/>
		</g>
	</g>
	<g>
		<path class="st0" d="M566.8,210.7h-176c-6.6,0-12-5.4-12-12v-176c0-6.6,5.4-12,12-12h176c6.6,0,12,5.4,12,12v176
			C578.8,205.3,573.4,210.7,566.8,210.7z"/>
		<g id="layer1_3_" transform="translate(-126.28 -58.646)">
			<path id="rect3311" class="st1" d="M668,133.5l21,55.2l-112.9,42.9l-21-55.2l52.7-20v10h14.3V151L668,133.5L668,133.5z
				 M660.2,143.1c-0.1,0-0.2,0-0.3,0c-3.5,0-6.3,2.8-6.3,6.3s2.8,6.3,6.3,6.3s6.3-2.8,6.3-6.3C666.2,146.1,663.6,143.3,660.2,143.1z
				"/>
			
				<rect id="rect4095" x="548.3" y="189.8" transform="matrix(0.9349 -0.355 0.355 0.9349 -37.7154 210.6622)" class="st1" width="14" height="36.6"/>
			
				<rect id="rect4097" x="531.2" y="185" transform="matrix(0.9349 -0.355 0.355 0.9349 -41.1029 205.0424)" class="st1" width="14" height="59"/>
			<rect id="rect4107" x="583.7" y="94.3" class="st1" width="62.3" height="6.4"/>
			<rect id="rect4122" x="609.2" y="100.6" class="st1" width="11.4" height="64.2"/>
		</g>
	</g>
	<g>
		<path class="st0" d="M865.6,210.7h-176c-6.6,0-12-5.4-12-12v-176c0-6.6,5.4-12,12-12h176c6.6,0,12,5.4,12,12v176
			C877.6,205.3,872.2,210.7,865.6,210.7z"/>
		<g id="layer2">
			<path id="path3236" class="st6" d="M733,63.1v110.8 M755.2,63.1v110.8 M777.4,63.1v110.8 M799.6,63.1v110.8 M821.8,63.1v110.8
				 M710.8,63.1H844L843.8,174l-133,0.1V63.1 M710.8,85.3H844 M710.8,107.5H844 M710.8,129.7H844 M710.8,151.8h133.5"/>
			<rect id="rect3238" x="710.8" y="47.3" class="st7" width="133.5" height="15"/>
		</g>
		<rect x="710.8" y="64.6" class="st1" width="20.7" height="20.7"/>
		<rect x="734.5" y="64.6" class="st1" width="20.7" height="20.7"/>
		<rect x="756.5" y="108.1" class="st1" width="20.7" height="20.7"/>
		<rect x="799.6" y="85.3" class="st1" width="20.7" height="20.7"/>
		<rect x="710.8" y="131.2" class="st1" width="20.7" height="20.7"/>
	</g>
</g>
<g>
</g>
<g>
</g>
<g>
</g>
<g>
</g>
<g>
</g>
</svg>
